<?xml version="1.0" encoding="utf-8"?>
<!DOCTYPE svg PUBLIC "-//W3C//DTD SVG 1.1//EN" "http://www.w3.org/Graphics/SVG/1.1/DTD/svg11.dtd">
<svg xmlns="http://www.w3.org/2000/svg" xmlns:xlink="http://www.w3.org/1999/xlink" version="1.1" viewBox="0 0 512 512" enable-background="new 0 0 512 512" width="512px" height="512px">
  <g>
    <g>
      <path d="m365.5,191.5v-106.7c0-7.2-3.8-13.8-9.9-17.5l-89-53.4c-6.5-3.9-14.5-3.9-21,0l-89.1,53.4c-6.2,3.7-9.9,10.3-9.9,17.5v106.7c0,7.2 3.8,13.8 9.9,17.5l89.1,53.4c9.4,5.4 17.2,2.5 21,0l89-53.4c6.1-3.7 9.9-10.3 9.9-17.5z" fill="#41c4c4"/>
      <path d="m220,303l-89-53.4c-6.5-3.9-14.5-3.9-21,0l-89.1,53.4c-6.2,3.7-9.9,10.3-9.9,17.5v106.7c0,7.2 3.8,13.8 9.9,17.5l89.1,53.4c9.4,5.4 17.2,2.5 21,0l89-53.4c6.2-3.7 9.9-10.3 9.9-17.5v-106.7c0-7.2-3.7-13.8-9.9-17.5z" fill="#41c4c4"/>
      <path d="m491.1,302.9l-89-53.4c-6.5-3.9-14.5-3.9-21,0l-89.1,53.4c-6.2,3.7-9.9,10.3-9.9,17.5v106.7c0,7.2 3.8,13.8 9.9,17.5l89,53.4c9.4,5.4 17.2,2.5 21,0l89-53.4c6.2-3.7 9.9-10.3 9.9-17.5v-106.7c0.1-7.2-3.7-13.8-9.8-17.5z" fill="#41c4c4"/>
    </g>
  </g>
</svg>
